<svg width="225" height="225" viewBox="0 0 225 225" fill="none" xmlns="http://www.w3.org/2000/svg">
<g clip-path="url(#clip0_1_8)">
<path d="M75.4814 80.3013C76.1227 81.1484 78.2958 83.9676 78.951 84.7297L91.615 100.58C91.6838 100.66 91.729 100.758 91.7457 100.862C91.7624 100.966 91.7499 101.073 91.7095 101.171L76.8949 163.171C76.7839 163.563 76.7594 163.974 76.8231 164.377C76.8868 164.779 77.0372 165.163 77.2639 165.502L82.3355 172.202L108.683 123.647C108.742 123.534 108.83 123.439 108.937 123.37C109.044 123.301 109.167 123.261 109.294 123.254C109.422 123.247 109.548 123.273 109.662 123.33C109.776 123.387 109.874 123.473 109.944 123.579L133.344 153.56C133.593 153.869 133.765 154.231 133.847 154.619C133.929 155.006 133.919 155.407 133.817 155.79L129.582 173.496C129.176 174.979 129.713 176.775 130.635 177.994L134.192 182.693C134.436 183.015 134.701 182.739 134.939 182.422L148.993 164.008C149.663 162.913 150.722 162.111 151.958 161.764L173.445 153.284C174.042 153.063 174.29 152.847 173.858 152.277L170.478 147.812C168.943 145.783 168.47 145.707 166.38 145.659L147.882 144.884C147.487 144.875 147.099 144.775 146.749 144.591C146.399 144.407 146.097 144.145 145.865 143.824L123.777 113.245C123.697 113.134 123.645 113.005 123.626 112.869C123.606 112.733 123.621 112.594 123.668 112.465C123.714 112.336 123.792 112.22 123.893 112.128C123.995 112.035 124.118 111.969 124.251 111.935L178.016 99.7779L172.992 93.1401C172.728 92.8306 172.4 92.5821 172.031 92.4116C171.661 92.2412 171.26 92.1528 170.853 92.1526L107.131 89.4939C106.908 89.5098 106.53 89.1653 106.4 88.9933L94.7713 72.7509C94.1988 71.8909 92.0943 69.0589 91.4512 68.2093C83.1017 57.1786 74.7884 52.4972 69.8225 56.2561C64.8566 60.0149 67.1074 69.2382 75.4814 80.3013Z" stroke="url(#paint0_linear_1_8)" stroke-width="10" stroke-linecap="round" stroke-linejoin="round"/>
</g>
<defs>
<linearGradient id="paint0_linear_1_8" x1="153.669" y1="168.375" x2="70.4714" y2="55.7648" gradientUnits="userSpaceOnUse">
<stop stop-color="#222222"/>
<stop offset="1" stop-color="#AAAAAA"/>
</linearGradient>
<clipPath id="clip0_1_8">
<rect width="160" height="160" fill="white" transform="translate(96.5653 224.139) rotate(-127.123)"/>
</clipPath>
</defs>
</svg>
