<?xml version="1.0" encoding="UTF-8"?>
<svg version="1.1" xmlns="http://www.w3.org/2000/svg" width="500" height="500">
<path d="M0 0 C29.7 0 59.4 0 90 0 C90 1.32 90 2.64 90 4 C88.13794922 4.27263672 88.13794922 4.27263672 86.23828125 4.55078125 C84.59626661 4.80412065 82.95434422 5.05805845 81.3125 5.3125 C80.08756836 5.48942383 80.08756836 5.48942383 78.83789062 5.66992188 C74.32644032 6.38225613 70.65229349 7.06000849 67 10 C64.35513124 14.34407974 64.84436739 18.20301776 66 23 C67.61035607 27.30851673 69.56233278 31.42295978 71.5625 35.5625 C72.06330078 36.62791016 72.56410156 37.69332031 73.08007812 38.79101562 C75.92744039 44.81248665 78.88216779 50.77664319 81.875 56.7265625 C85.84060498 64.61382297 89.6355347 72.57644134 93.38452148 80.56860352 C94.45866072 82.85759348 95.53678118 85.14468047 96.61523438 87.43164062 C97.30491944 88.89832846 97.99438147 90.36512119 98.68359375 91.83203125 C99.0033165 92.51006302 99.32303925 93.18809479 99.65245056 93.88667297 C100.90850817 96.56928277 102.06223678 99.18671033 103 102 C91.78 102 80.56 102 69 102 C63.3716113 90.78138117 57.8076777 79.53440431 52.3125 68.25 C51.92492523 67.45572601 51.53735046 66.66145203 51.13803101 65.84310913 C47.07218448 57.50686942 43.03663453 49.16154205 39.1875 40.72265625 C38.74980537 39.76554245 38.74980537 39.76554245 38.30326843 38.78909302 C36.96190048 35.85107626 35.63320169 32.90833651 34.32348633 29.95605469 C30.0733697 20.57137892 25.76870333 11.20669327 15.91015625 6.89453125 C10.39147224 5.19818409 4.73124375 4.55330451 -1 4 C-0.67 2.68 -0.34 1.36 0 0 Z " fill="#FEFEFE" transform="translate(147,147)"/>
<path d="M0 0 C10.23 0 20.46 0 31 0 C31.05607422 7.38439453 31.05607422 7.38439453 31.11328125 14.91796875 C31.14356313 18.03974833 31.17471228 21.16147103 31.20898438 24.28320312 C31.26328051 29.23638019 31.31439148 34.18944475 31.34643555 39.14282227 C31.37247624 43.13710423 31.41288368 47.13100779 31.46318626 51.12505531 C31.47984988 52.64759928 31.49136733 54.1702087 31.49761391 55.69283104 C31.50726088 57.82841886 31.53532493 59.96303975 31.56762695 62.09838867 C31.58428154 63.92040047 31.58428154 63.92040047 31.60127258 65.77922058 C32.03688186 69.29791861 32.86521541 71.19379814 35 74 C39.99288761 76.43555493 45.53017519 76.58922264 51 77 C51 78.32 51 79.64 51 81 C27.24 81 3.48 81 -21 81 C-21 79.68 -21 78.36 -21 77 C-20.03578125 76.86722656 -19.0715625 76.73445313 -18.078125 76.59765625 C-16.18320313 76.33275391 -16.18320313 76.33275391 -14.25 76.0625 C-12.37054688 75.80146484 -12.37054688 75.80146484 -10.453125 75.53515625 C-7.8921139 75.13825747 -5.49682675 74.65290585 -3 74 C-0.79970562 65.96699541 -0.65437219 58.19146753 -0.5859375 49.90234375 C-0.5671937 48.45787998 -0.54761799 47.01342679 -0.5272522 45.56898499 C-0.47626365 41.79621666 -0.4364616 38.02341296 -0.39910889 34.25048828 C-0.35176227 29.70808985 -0.29030921 25.16586233 -0.23126221 20.62360382 C-0.14345638 13.74913948 -0.07340226 6.87470111 0 0 Z " fill="#FEFEFE" transform="translate(235,288)"/>
<path d="M0 0 C20.79 0 41.58 0 63 0 C63.495 1.98 63.495 1.98 64 4 C62.2984375 4.23783203 62.2984375 4.23783203 60.5625 4.48046875 C47.65897288 6.22063709 47.65897288 6.22063709 37.48046875 13.76171875 C34.2213844 18.2762815 31.79755837 23.2726525 29.32421875 28.24609375 C28.80295662 29.29195648 28.80295662 29.29195648 28.27116394 30.35894775 C24.71326494 37.52862983 21.27887776 44.75517092 17.87268066 51.99789429 C16.78278316 54.31312647 15.68811928 56.62606171 14.59277344 58.9387207 C11.04793582 66.43605949 7.55348698 73.94963119 4.18359375 81.52734375 C3.31316133 83.46719511 2.441634 85.40655136 1.56991577 87.3458252 C0.76558047 89.15250354 -0.01818782 90.96829354 -0.80151367 92.78417969 C-1.28467041 93.85958008 -1.76782715 94.93498047 -2.265625 96.04296875 C-2.67586914 96.98164795 -3.08611328 97.92032715 -3.50878906 98.88745117 C-5 101 -5 101 -7.67089844 101.80981445 C-8.43950195 101.87257568 -9.20810547 101.93533691 -10 102 C-8.58992572 97.4741234 -6.80352146 93.22976669 -4.76171875 88.9609375 C-4.44445831 88.29032288 -4.12719788 87.61970825 -3.80032349 86.92877197 C-3.11928324 85.49001274 -2.43674417 84.05196219 -1.75283813 82.61456299 C-0.30826686 79.57777282 1.12826555 76.53720457 2.56520081 73.49679565 C3.29973938 71.94269298 4.03463511 70.38875906 4.7698822 68.83499146 C8.2671786 61.44313432 11.7363516 54.03850291 15.1875 46.625 C15.7028833 45.52333496 16.2182666 44.42166992 16.74926758 43.28662109 C24.71687217 28.78589749 24.71687217 28.78589749 26 13 C23.37728619 9.26461973 20.77330439 7.44784478 16.3125 6.40234375 C10.89529814 5.45982383 5.45177936 4.7107729 0 4 C0 2.68 0 1.36 0 0 Z " fill="#FDFDFD" transform="translate(291,147)"/>
<path d="M0 0 C0.66 0 1.32 0 2 0 C1.67 0.804375 1.34 1.60875 1 2.4375 C-0.06059041 4.69681125 -0.06059041 4.69681125 0 6 C1.32 6 2.64 6 4 6 C3.67 6.78375 3.34 7.5675 3 8.375 C1.88133489 10.84332497 1.88133489 10.84332497 2 13 C3.32 12.01 4.64 11.02 6 10 C4.84826645 12.46800047 3.95216435 14.04783565 2 16 C0.68 16 -0.64 16 -2 16 C-2 14.35 -2 12.7 -2 11 C-2.78375 11.804375 -3.5675 12.60875 -4.375 13.4375 C-7.5496585 16.53657139 -8.08492341 16.95097804 -12.5 17.1875 C-16 17 -16 17 -18 15 C-20.60280568 15.32041397 -20.60280568 15.32041397 -23 16 C-23.495 14.515 -23.495 14.515 -24 13 C-24.66 13.99 -25.32 14.98 -26 16 C-26.556875 15.814375 -27.11375 15.62875 -27.6875 15.4375 C-30.45736936 14.91347066 -32.26479953 15.34876179 -35 16 C-36.99897128 16.33944795 -38.99875639 16.67421616 -41 17 C-41.66 16.01 -42.32 15.02 -43 14 C-43.66 14.66 -44.32 15.32 -45 16 C-47.5 16.25 -47.5 16.25 -50 16 C-50.66 15.34 -51.32 14.68 -52 14 C-52.66 14.66 -53.32 15.32 -54 16 C-56.8203125 16.1953125 -56.8203125 16.1953125 -60.125 16.125 C-61.22070312 16.10695313 -62.31640625 16.08890625 -63.4453125 16.0703125 C-64.28835937 16.04710937 -65.13140625 16.02390625 -66 16 C-66 15.34 -66 14.68 -66 14 C-66.99 14.66 -67.98 15.32 -69 16 C-70.66821323 15.67449498 -72.33499557 15.34153937 -74 15 C-74.66 15.66 -75.32 16.32 -76 17 C-78.125 16.625 -78.125 16.625 -80 16 C-80.4375 13.875 -80.4375 13.875 -80 11 C-77.97876647 8.51057113 -75.77646193 6.60621764 -73 5 C-70.0625 5.125 -70.0625 5.125 -68 6 C-68.165 6.78375 -68.33 7.5675 -68.5 8.375 C-69.0623707 10.88208039 -69.0623707 10.88208039 -69 13 C-68.30132812 12.278125 -67.60265625 11.55625 -66.8828125 10.8125 C-65.97273437 9.884375 -65.06265625 8.95625 -64.125 8 C-63.22007812 7.071875 -62.31515625 6.14375 -61.3828125 5.1875 C-59 3 -59 3 -57 3 C-57.66 6.3 -58.32 9.6 -59 13 C-56.66475218 10.74259377 -54.81294927 8.7194239 -53 6 C-52.01 6.33 -51.02 6.66 -50 7 C-47.85744207 6.61067144 -47.85744207 6.61067144 -46 6 C-46.33 8.64 -46.66 11.28 -47 14 C-46.34 14 -45.68 14 -45 14 C-44.67 11.36 -44.34 8.72 -44 6 C-43.34 6 -42.68 6 -42 6 C-41.34 6.99 -40.68 7.98 -40 9 C-39.278125 8.319375 -38.55625 7.63875 -37.8125 6.9375 C-35 5 -35 5 -32.1875 5.25 C-31.465625 5.4975 -30.74375 5.745 -30 6 C-30.54723683 9.37462715 -31.0549 11.08235 -33 14 C-32.236875 13.236875 -31.47375 12.47375 -30.6875 11.6875 C-29.800625 10.800625 -28.91375 9.91375 -28 9 C-27.443125 8.401875 -26.88625 7.80375 -26.3125 7.1875 C-25 6 -25 6 -23 6 C-23 6.99 -23 7.98 -23 9 C-22.29875 8.360625 -21.5975 7.72125 -20.875 7.0625 C-17.7323127 4.80796346 -15.78848635 4.41179199 -12 4 C-11.01 3.67 -10.02 3.34 -9 3 C-9 3.99 -9 4.98 -9 6 C-5.34382438 5.6953187 -4.2536288 5.29710802 -1.8125 2.4375 C-1.214375 1.633125 -0.61625 0.82875 0 0 Z M-72 7 C-75.78034623 10.47736026 -75.78034623 10.47736026 -78 15 C-74.63279613 13.60667426 -73.0140476 12.0210714 -71 9 C-71.33 8.34 -71.66 7.68 -72 7 Z M-63.0625 9 C-63.701875 9.66 -64.34125 10.32 -65 11 C-64.67 11.99 -64.34 12.98 -64 14 C-63.01 13.67 -62.02 13.34 -61 13 C-60.67 11.02 -60.34 9.04 -60 7 C-61.35917681 6.88397569 -61.35917681 6.88397569 -63.0625 9 Z M-17 7 C-18.98 9.97 -18.98 9.97 -21 13 C-20.67 13.66 -20.34 14.32 -20 15 C-18.35 13.02 -16.7 11.04 -15 9 C-15.66 8.34 -16.32 7.68 -17 7 Z M-11.6875 8.125 C-14.21988288 9.81975241 -14.21988288 9.81975241 -14.8125 12.6875 C-14.874375 13.450625 -14.93625 14.21375 -15 15 C-12.29068581 14.84518205 -10.53415961 14.51827919 -8.5546875 12.59765625 C-7.32320358 11.10228292 -6.1570163 9.5537076 -5 8 C-7.82652171 6.84845412 -8.81325108 6.92182604 -11.6875 8.125 Z M-34 7 C-37.66887552 9.51070754 -37.66887552 9.51070754 -39.8125 13.25 C-39.9053125 14.11625 -39.9053125 14.11625 -40 15 C-36.31197956 13.77065985 -35.27643027 12.06140622 -33 9 C-33.33 8.34 -33.66 7.68 -34 7 Z " fill="#FAFAFA" transform="translate(263,259)"/>
<path d="M0 0 C-0.66 3.3 -1.32 6.6 -2 10 C-1.21625 9.21625 -0.4325 8.4325 0.375 7.625 C1.91666667 6.08333333 3.45833333 4.54166667 5 3 C5.99 3 6.98 3 8 3 C7.67 3.61875 7.34 4.2375 7 4.875 C5.85806765 6.91018344 5.85806765 6.91018344 6 9 C7.98 7.02 9.96 5.04 12 3 C12.99 3.33 13.98 3.66 15 4 C13.68 6.31 12.36 8.62 11 11 C11.96355244 9.92130607 12.92061417 8.83681257 13.875 7.75 C14.40867187 7.14671875 14.94234375 6.5434375 15.4921875 5.921875 C16.9797487 4.02581254 18.00322436 2.18709995 19 0 C22 1 22 1 23.4375 2.625 C24.13149104 5.55518438 23.5861461 6.19944816 22.125 8.75 C21.42375 9.8225 20.7225 10.895 20 12 C24.2026393 9.36113346 27.56638098 6.63559661 31 3 C31.99 3.33 32.98 3.66 34 4 C32.68 6.31 31.36 8.62 30 11 C30.47050781 10.4225 30.94101562 9.845 31.42578125 9.25 C32.04839844 8.5075 32.67101562 7.765 33.3125 7 C34.23482422 5.88625 34.23482422 5.88625 35.17578125 4.75 C37 3 37 3 40 3 C38.125 7.75 38.125 7.75 37 10 C38.65 9.01 40.3 8.02 42 7 C40.60667426 10.36720387 39.0210714 11.9859524 36 14 C34.68 13.34 33.36 12.68 32 12 C31.34 12.66 30.68 13.32 30 14 C28 13.625 28 13.625 26 13 C23.9746176 12.90975147 23.9746176 12.90975147 22 13.5625 C20 14 20 14 18 13 C18 11.02 18 9.04 18 7 C17.20335937 7.77537109 17.20335937 7.77537109 16.390625 8.56640625 C15.33101563 9.55447266 15.33101563 9.55447266 14.25 10.5625 C13.55390625 11.22378906 12.8578125 11.88507813 12.140625 12.56640625 C10 14 10 14 7.8671875 13.6796875 C6.94292969 13.34324219 6.94292969 13.34324219 6 13 C5.29875 13.185625 4.5975 13.37125 3.875 13.5625 C3.25625 13.706875 2.6375 13.85125 2 14 C1.34 13.34 0.68 12.68 0 12 C-2.22128555 11.97691403 -2.22128555 11.97691403 -4.625 12.375 C-5.44226563 12.48585938 -6.25953125 12.59671875 -7.1015625 12.7109375 C-7.72804688 12.80632812 -8.35453125 12.90171875 -9 13 C-9.66 11.68 -10.32 10.36 -11 9 C-9.54782324 7.49403892 -8.08807139 5.99537896 -6.625 4.5 C-5.40683594 3.24703125 -5.40683594 3.24703125 -4.1640625 1.96875 C-2 0 -2 0 0 0 Z M-6.0625 6 C-6.701875 6.66 -7.34125 7.32 -8 8 C-7.67 8.99 -7.34 9.98 -7 11 C-6.01 10.67 -5.02 10.34 -4 10 C-3.67 8.02 -3.34 6.04 -3 4 C-4.35917681 3.88397569 -4.35917681 3.88397569 -6.0625 6 Z " fill="#F1F2F2" transform="translate(304,262)"/>
<path d="M0 0 C1 1 1 1 1.3125 3.19921875 C0.8917619 6.97008401 -0.69895974 8.82833842 -3 11.8125 C-3.7425 12.78832031 -4.485 13.76414062 -5.25 14.76953125 C-5.8275 15.50558594 -6.405 16.24164063 -7 17 C-1.39575333 14.40021817 2.96762959 10.42540033 6.8125 5.625 C7.8953125 4.325625 7.8953125 4.325625 9 3 C9.66 3 10.32 3 11 3 C9.51795657 8.31204329 7.05560496 12.51976364 4.125 17.125 C3.69058594 17.82753906 3.25617188 18.53007812 2.80859375 19.25390625 C0.53090174 22.87222179 -1.64040879 26.28165856 -5 29 C-8.25 29.25 -8.25 29.25 -11 29 C-11.33 27.68 -11.66 26.36 -12 25 C-11.34 25 -10.68 25 -10 25 C-9.67 25.66 -9.34 26.32 -9 27 C-5.31353859 25.54144353 -3.83856029 23.69770955 -1.75 20.375 C-1.22921875 19.55773437 -0.7084375 18.74046875 -0.171875 17.8984375 C0.21484375 17.27195312 0.6015625 16.64546875 1 16 C-2.09756244 18.38850103 -2.09756244 18.38850103 -5 21 C-6.66617115 21.04063832 -8.33388095 21.042721 -10 21 C-10.33 19.35 -10.66 17.7 -11 16 C-11.763125 16.226875 -12.52625 16.45375 -13.3125 16.6875 C-16 17 -16 17 -17.875 15.875 C-19 14 -19 14 -18.9375 11.625 C-17.2106434 6.78980151 -14.57503922 4.10396489 -10.125 1.6875 C-6.64217447 0.07303134 -3.87365677 -0.47239717 0 0 Z M-14 7 C-16.02212048 10.11720751 -16.02212048 10.11720751 -17 13 C-15.23470405 14.21690533 -15.23470405 14.21690533 -13 15 C-7.40938228 13.07822516 -3.71230085 9.08556408 -1 4 C-1 3.34 -1 2.68 -1 2 C-6.26545653 1.17727242 -10.09379857 3.72792218 -14 7 Z " fill="#F9F9F9" transform="translate(175,254)"/>
<path d="M0 0 C0.99 0 1.98 0 3 0 C2.34 1.32 1.68 2.64 1 4 C2.32 4.66 3.64 5.32 5 6 C4.6875 7.875 4.6875 7.875 4 10 C1 12 1 12 -3 12 C-2.67 12.66 -2.34 13.32 -2 14 C1.70185222 12.94232794 3.00860888 11.98945412 5.5 8.9375 C8 6 8 6 10.8125 5.125 C11.8953125 5.063125 11.8953125 5.063125 13 5 C13.66 6.32 14.32 7.64 15 9 C14.34 9 13.68 9 13 9 C12.773125 9.763125 12.54625 10.52625 12.3125 11.3125 C10.73268318 14.54736301 9.16717283 15.41641358 6 17 C5.01 16.34 4.02 15.68 3 15 C2.01 15.66 1.02 16.32 0 17 C-2.28397032 16.65394389 -3.93409037 16.03295481 -6 15 C-6.66 15.66 -7.32 16.32 -8 17 C-8.7421875 15.38671875 -8.7421875 15.38671875 -9 13 C-7.3828125 10.01953125 -7.3828125 10.01953125 -5.125 6.8125 C-4.38507813 5.74644531 -3.64515625 4.68039062 -2.8828125 3.58203125 C-1 1 -1 1 0 0 Z M-1 7 C-1.99 8.485 -1.99 8.485 -3 10 C-1.35 9.34 0.3 8.68 2 8 C1.01 7.67 0.02 7.34 -1 7 Z M10 8 C8.68 9.65 7.36 11.3 6 13 C6.99 13 7.98 13 9 13 C9.66 12.34 10.32 11.68 11 11 C10.67 10.01 10.34 9.02 10 8 Z " fill="#F9FAF9" transform="translate(281,259)"/>
<path d="M0 0 C-0.66 3.3 -1.32 6.6 -2 10 C-1.21625 9.21625 -0.4325 8.4325 0.375 7.625 C1.91666667 6.08333333 3.45833333 4.54166667 5 3 C5.99 3 6.98 3 8 3 C7.67 3.61875 7.34 4.2375 7 4.875 C5.85806765 6.91018344 5.85806765 6.91018344 6 9 C7.98 7.02 9.96 5.04 12 3 C12.99 3.33 13.98 3.66 15 4 C13.92578125 5.7578125 12.8515625 7.515625 11.77734375 9.2734375 C11.52082031 9.84320313 11.26429688 10.41296875 11 11 C11.33 11.66 11.66 12.32 12 13 C8.25 14.125 8.25 14.125 6 13 C5.34 13.185625 4.68 13.37125 4 13.5625 C3.34 13.706875 2.68 13.85125 2 14 C1.34 13.34 0.68 12.68 0 12 C-2.22128555 11.97691403 -2.22128555 11.97691403 -4.625 12.375 C-5.44226563 12.48585938 -6.25953125 12.59671875 -7.1015625 12.7109375 C-7.72804688 12.80632812 -8.35453125 12.90171875 -9 13 C-9.66 11.68 -10.32 10.36 -11 9 C-9.54782324 7.49403892 -8.08807139 5.99537896 -6.625 4.5 C-5.40683594 3.24703125 -5.40683594 3.24703125 -4.1640625 1.96875 C-2 0 -2 0 0 0 Z M-6.0625 6 C-6.701875 6.66 -7.34125 7.32 -8 8 C-7.67 8.99 -7.34 9.98 -7 11 C-6.01 10.67 -5.02 10.34 -4 10 C-3.67 8.02 -3.34 6.04 -3 4 C-4.35917681 3.88397569 -4.35917681 3.88397569 -6.0625 6 Z " fill="#F7F7F8" transform="translate(304,262)"/>
<path d="M0 0 C3 1 3 1 4.1875 3.0625 C4.455625 3.701875 4.72375 4.34125 5 5 C3.9790625 5.061875 3.9790625 5.061875 2.9375 5.125 C-1.25515787 6.37387681 -3.8592439 9.04026731 -7 12 C-5.61735163 9.13132769 -4.07851447 6.43975968 -2.375 3.75 C-1.92898438 3.04359375 -1.48296875 2.3371875 -1.0234375 1.609375 C-0.68570312 1.07828125 -0.34796875 0.5471875 0 0 Z " fill="#E9E9E9" transform="translate(323,262)"/>
<path d="M0 0 C-1.75 5.75 -1.75 5.75 -4 8 C-4.66 6.68 -5.32 5.36 -6 4 C-2.25 0 -2.25 0 0 0 Z " fill="#FCFCFC" transform="translate(186,257)"/>
<path d="M0 0 C-0.66 1.65 -1.32 3.3 -2 5 C-2.99 5 -3.98 5 -5 5 C-5.33 5.99 -5.66 6.98 -6 8 C-6.36458333 3.50347222 -6.36458333 3.50347222 -4.6875 1.1875 C-3 0 -3 0 0 0 Z " fill="#F6F6F6" transform="translate(344,265)"/>
<path d="M0 0 C0 3 0 3 -1.25 4.6875 C-3 6 -3 6 -7 6 C-6.67 4.35 -6.34 2.7 -6 1 C-4.515 1.99 -4.515 1.99 -3 3 C-2.01 2.01 -1.02 1.02 0 0 Z " fill="#F1F2F1" transform="translate(268,269)"/>
</svg>
